<svg width="255" height="270" viewBox="0 0 255 270" fill="none" xmlns="http://www.w3.org/2000/svg">
<g filter="url(#filter0_d_6_16)">

  <!-- Card background -->
  <rect x="60" y="30" width="135" height="150" rx="10" fill="#141B22"/>

  <!-- Flame icon (FMA orange) -->
  <path d="M127.5 50
    C127.5 50 116 62 114 72
    C112 82 117 90 122 90
    C120 84 121 79 124.5 77
    C124.5 83.5 126.5 89 127.5 92
    C128.5 89 130.5 83.5 130.5 77
    C134 79 135 84 133 90
    C138 90 143 82 141 72
    C139 62 127.5 50 127.5 50Z"
    fill="#e46c2c"/>

  <!-- Label -->
  <text x="127.5" y="109"
    text-anchor="middle"
    font-family="Arial, Helvetica, sans-serif"
    font-size="10"
    font-weight="400"
    letter-spacing="0.8"
    fill="#4F5358">CALORIES BURNED</text>

  <!-- Main number -->
  <text x="127.5" y="138"
    text-anchor="middle"
    font-family="Arial, Helvetica, sans-serif"
    font-size="32"
    font-weight="900"
    letter-spacing="-1"
    fill="white">1000</text>

  <!-- Unit -->
  <text x="127.5" y="157"
    text-anchor="middle"
    font-family="Arial, Helvetica, sans-serif"
    font-size="13"
    font-weight="700"
    letter-spacing="2"
    fill="#e46c2c">KCAL</text>

</g>
<defs>
  <filter id="filter0_d_6_16" x="0" y="0" width="255" height="270" filterUnits="userSpaceOnUse" color-interpolation-filters="sRGB">
    <feFlood flood-opacity="0" result="BackgroundImageFix"/>
    <feColorMatrix in="SourceAlpha" type="matrix" values="0 0 0 0 0 0 0 0 0 0 0 0 0 0 0 0 0 0 127 0" result="hardAlpha"/>
    <feOffset dy="30"/>
    <feGaussianBlur stdDeviation="30"/>
    <feComposite in2="hardAlpha" operator="out"/>
    <feColorMatrix type="matrix" values="0 0 0 0 0 0 0 0 0 0 0 0 0 0 0 0 0 0 0.4 0"/>
    <feBlend mode="normal" in2="BackgroundImageFix" result="effect1_dropShadow_6_16"/>
    <feBlend mode="normal" in="SourceGraphic" in2="effect1_dropShadow_6_16" result="shape"/>
  </filter>
</defs>
</svg>
